<?xml version="1.0" encoding="UTF-8"?>
<svg id="Capa_1" data-name="Capa 1" xmlns="http://www.w3.org/2000/svg" viewBox="0 0 1000 360">
  <defs>
    <style>
      .cls-1 {
        fill: #fff;
        stroke-width: 0px;
      }
    </style>
  </defs>
  <g>
    <g>
      <polygon class="cls-1" points="167.73 244.79 100.61 217.54 100.61 227.83 167.73 255.08 167.73 244.79"/>
      <polygon class="cls-1" points="170.4 244.43 170.4 254.73 278.07 147.57 278.07 137.16 170.4 244.43"/>
    </g>
    <g>
      <polygon class="cls-1" points="236.44 173.68 188.66 126.09 185.83 128.91 234.28 177.18 278.07 133.55 209.31 105.52 191.01 123.75 236.44 173.68"/>
      <polygon class="cls-1" points="209.58 201.78 222.69 188.73 174.24 140.46 161.13 153.51 209.58 201.78"/>
      <polygon class="cls-1" points="139.53 180.92 185.03 226.25 190.25 221.04 141.8 172.77 100.61 213.81 169.37 241.85 182.8 228.47 139.53 180.92"/>
    </g>
  </g>
  <g>
    <path class="cls-1" d="M369.34,145.1c-.42.71-.88,1.24-1.38,1.59-.49.35-1.1.53-1.8.53-.8,0-1.74-.4-2.83-1.2-1.08-.8-2.44-1.68-4.06-2.65-1.62-.96-3.58-1.85-5.87-2.65-2.29-.8-5.05-1.2-8.3-1.2-3.06,0-5.76.41-8.09,1.24-2.33.83-4.29,1.94-5.87,3.36-1.58,1.41-2.77,3.07-3.57,4.98-.8,1.91-1.2,3.97-1.2,6.18,0,2.83.69,5.17,2.08,7.03,1.39,1.86,3.23,3.45,5.51,4.77,2.28,1.32,4.88,2.46,7.77,3.43,2.9.97,5.87,1.97,8.9,3,3.04,1.04,6.01,2.2,8.9,3.5,2.9,1.3,5.49,2.93,7.77,4.91,2.28,1.98,4.12,4.41,5.51,7.28,1.39,2.87,2.08,6.41,2.08,10.6,0,4.43-.75,8.59-2.26,12.47-1.51,3.89-3.71,7.27-6.61,10.14-2.9,2.87-6.46,5.14-10.67,6.78-4.22,1.65-9.01,2.47-14.38,2.47-6.6,0-12.58-1.19-17.95-3.57-5.37-2.38-9.96-5.59-13.78-9.65l3.96-6.5c.38-.52.84-.95,1.38-1.31.54-.35,1.14-.53,1.8-.53.61,0,1.31.25,2.08.74.78.49,1.66,1.12,2.65,1.87.99.75,2.12,1.58,3.39,2.47,1.27.9,2.72,1.72,4.35,2.47,1.62.75,3.47,1.38,5.55,1.87,2.07.49,4.4.74,7,.74,3.25,0,6.15-.45,8.69-1.34,2.54-.89,4.7-2.16,6.47-3.78s3.12-3.57,4.06-5.83c.94-2.26,1.41-4.78,1.41-7.56,0-3.06-.7-5.57-2.08-7.53-1.39-1.95-3.22-3.59-5.48-4.91-2.26-1.32-4.85-2.44-7.77-3.36-2.92-.92-5.89-1.86-8.9-2.83-3.02-.97-5.98-2.08-8.9-3.36-2.92-1.27-5.51-2.92-7.77-4.95-2.26-2.02-4.09-4.56-5.48-7.6-1.39-3.04-2.08-6.79-2.08-11.27,0-3.58.69-7.04,2.08-10.39,1.39-3.34,3.42-6.31,6.08-8.9,2.66-2.59,5.94-4.66,9.82-6.22s8.35-2.33,13.39-2.33c5.65,0,10.8.9,15.44,2.69,4.64,1.79,8.73,4.38,12.26,7.77l-3.32,6.5Z"/>
    <path class="cls-1" d="M406.59,136.47c0,1.23-.25,2.37-.74,3.43s-1.15,2-1.98,2.83-1.79,1.47-2.9,1.94c-1.11.47-2.27.71-3.5.71s-2.37-.24-3.43-.71c-1.06-.47-1.99-1.12-2.79-1.94-.8-.82-1.44-1.77-1.91-2.83-.47-1.06-.71-2.2-.71-3.43s.24-2.39.71-3.5c.47-1.11,1.11-2.07,1.91-2.9.8-.82,1.73-1.47,2.79-1.94,1.06-.47,2.2-.71,3.43-.71s2.39.24,3.5.71c1.11.47,2.07,1.12,2.9,1.94.82.82,1.48,1.79,1.98,2.9.49,1.11.74,2.27.74,3.5ZM403.9,158.95v71.59h-12.58v-71.59h12.58Z"/>
    <path class="cls-1" d="M437.54,126.44v104.09h-12.58v-104.09h12.58Z"/>
    <path class="cls-1" d="M519.23,158.95l-29.19,71.59h-11.31l-29.19-71.59h10.25c1.04,0,1.88.26,2.54.78.66.52,1.11,1.13,1.34,1.84l18.16,46.08c.57,1.74,1.06,3.44,1.48,5.09.42,1.65.82,3.3,1.2,4.95.38-1.65.78-3.3,1.2-4.95.42-1.65.94-3.34,1.55-5.09l18.37-46.08c.28-.75.75-1.38,1.41-1.87.66-.49,1.44-.74,2.33-.74h9.82Z"/>
    <path class="cls-1" d="M586.93,220.5c-1.55,1.88-3.42,3.52-5.58,4.91-2.17,1.39-4.49,2.53-6.96,3.43-2.47.9-5.03,1.57-7.67,2.01-2.64.45-5.25.67-7.84.67-4.95,0-9.5-.84-13.67-2.51-4.17-1.67-7.77-4.12-10.81-7.35-3.04-3.23-5.41-7.22-7.1-11.98-1.7-4.76-2.54-10.22-2.54-16.4,0-4.99.77-9.66,2.3-13.99,1.53-4.33,3.73-8.09,6.61-11.27,2.87-3.18,6.38-5.68,10.53-7.49,4.15-1.81,8.81-2.72,13.99-2.72,4.29,0,8.26.72,11.91,2.16,3.65,1.44,6.81,3.51,9.47,6.22,2.66,2.71,4.75,6.05,6.25,10.03,1.51,3.98,2.26,8.52,2.26,13.6,0,1.98-.21,3.3-.64,3.96-.42.66-1.23.99-2.4.99h-47.84c.14,4.52.77,8.46,1.87,11.8,1.11,3.35,2.65,6.14,4.63,8.37,1.98,2.24,4.33,3.91,7.07,5.02,2.73,1.11,5.79,1.66,9.19,1.66,3.16,0,5.88-.36,8.16-1.1,2.28-.73,4.25-1.52,5.9-2.37,1.65-.85,3.03-1.64,4.13-2.37,1.11-.73,2.06-1.1,2.86-1.1,1.04,0,1.84.4,2.4,1.2l3.53,4.59ZM576.75,186.93c0-2.92-.41-5.59-1.24-8.02-.83-2.43-2.03-4.52-3.6-6.29-1.58-1.77-3.5-3.13-5.76-4.1-2.26-.96-4.83-1.45-7.7-1.45-6.03,0-10.8,1.76-14.31,5.26s-5.69,8.37-6.54,14.59h39.15Z"/>
    <path class="cls-1" d="M615.41,173.29c2.26-4.9,5.04-8.73,8.34-11.48,3.3-2.76,7.33-4.13,12.08-4.13,1.51,0,2.96.17,4.35.5,1.39.33,2.63.85,3.71,1.55l-.92,9.4c-.28,1.18-.99,1.77-2.12,1.77-.66,0-1.63-.14-2.9-.42s-2.71-.42-4.31-.42c-2.26,0-4.28.33-6.04.99-1.77.66-3.35,1.64-4.73,2.93-1.39,1.3-2.64,2.9-3.75,4.81-1.11,1.91-2.11,4.09-3,6.54v45.23h-12.65v-71.59h7.21c1.37,0,2.31.26,2.83.78.52.52.87,1.41,1.06,2.69l.85,10.88Z"/>
    <path class="cls-1" d="M647.21,222.76c0-1.22.22-2.38.67-3.46.45-1.08,1.06-2.02,1.84-2.83.78-.8,1.71-1.44,2.79-1.91,1.08-.47,2.24-.71,3.46-.71s2.38.24,3.46.71c1.08.47,2.03,1.11,2.83,1.91.8.8,1.44,1.74,1.91,2.83.47,1.08.71,2.24.71,3.46s-.24,2.44-.71,3.5c-.47,1.06-1.11,1.99-1.91,2.79-.8.8-1.74,1.43-2.83,1.87-1.08.45-2.24.67-3.46.67s-2.38-.22-3.46-.67c-1.08-.45-2.01-1.07-2.79-1.87-.78-.8-1.39-1.73-1.84-2.79-.45-1.06-.67-2.23-.67-3.5Z"/>
    <path class="cls-1" d="M741.9,126.44v104.09h-7.49c-1.79,0-2.92-.87-3.39-2.61l-1.13-8.69c-3.06,3.67-6.55,6.64-10.46,8.9-3.91,2.26-8.43,3.39-13.57,3.39-4.1,0-7.82-.79-11.17-2.37-3.35-1.58-6.2-3.9-8.55-6.96-2.36-3.06-4.17-6.88-5.44-11.45-1.27-4.57-1.91-9.82-1.91-15.76,0-5.28.71-10.19,2.12-14.73,1.41-4.55,3.44-8.49,6.08-11.84,2.64-3.34,5.88-5.97,9.72-7.88,3.84-1.91,8.16-2.86,12.97-2.86,4.38,0,8.14.74,11.27,2.23,3.13,1.48,5.92,3.55,8.37,6.18v-39.64h12.58ZM729.32,175.98c-2.36-3.16-4.9-5.36-7.63-6.61-2.73-1.25-5.79-1.87-9.19-1.87-6.64,0-11.75,2.38-15.33,7.14-3.58,4.76-5.37,11.54-5.37,20.35,0,4.66.4,8.66,1.2,11.98.8,3.32,1.98,6.05,3.53,8.2,1.55,2.14,3.46,3.71,5.72,4.7s4.83,1.48,7.7,1.48c4.15,0,7.76-.94,10.85-2.83,3.08-1.88,5.92-4.55,8.52-7.99v-34.56Z"/>
    <path class="cls-1" d="M819.92,220.5c-1.55,1.88-3.42,3.52-5.58,4.91-2.17,1.39-4.49,2.53-6.96,3.43-2.47.9-5.03,1.57-7.67,2.01-2.64.45-5.25.67-7.84.67-4.95,0-9.5-.84-13.67-2.51-4.17-1.67-7.77-4.12-10.81-7.35-3.04-3.23-5.41-7.22-7.1-11.98-1.7-4.76-2.54-10.22-2.54-16.4,0-4.99.77-9.66,2.3-13.99,1.53-4.33,3.73-8.09,6.61-11.27,2.87-3.18,6.38-5.68,10.53-7.49,4.15-1.81,8.81-2.72,13.99-2.72,4.29,0,8.26.72,11.91,2.16,3.65,1.44,6.81,3.51,9.47,6.22,2.66,2.71,4.75,6.05,6.25,10.03,1.51,3.98,2.26,8.52,2.26,13.6,0,1.98-.21,3.3-.64,3.96-.42.66-1.23.99-2.4.99h-47.84c.14,4.52.77,8.46,1.87,11.8,1.11,3.35,2.65,6.14,4.63,8.37,1.98,2.24,4.33,3.91,7.07,5.02,2.73,1.11,5.79,1.66,9.19,1.66,3.16,0,5.88-.36,8.16-1.1,2.28-.73,4.25-1.52,5.9-2.37,1.65-.85,3.03-1.64,4.13-2.37,1.11-.73,2.06-1.1,2.86-1.1,1.04,0,1.84.4,2.4,1.2l3.53,4.59ZM809.74,186.93c0-2.92-.41-5.59-1.24-8.02-.83-2.43-2.03-4.52-3.6-6.29-1.58-1.77-3.5-3.13-5.76-4.1-2.26-.96-4.83-1.45-7.7-1.45-6.03,0-10.8,1.76-14.31,5.26s-5.69,8.37-6.54,14.59h39.15Z"/>
    <path class="cls-1" d="M896.24,158.95l-29.19,71.59h-11.31l-29.19-71.59h10.25c1.04,0,1.88.26,2.54.78.66.52,1.11,1.13,1.34,1.84l18.16,46.08c.57,1.74,1.06,3.44,1.48,5.09.42,1.65.82,3.3,1.2,4.95.38-1.65.78-3.3,1.2-4.95.42-1.65.94-3.34,1.55-5.09l18.37-46.08c.28-.75.75-1.38,1.41-1.87.66-.49,1.44-.74,2.33-.74h9.82Z"/>
  </g>
</svg>